#N canvas 209 138 631 425 10;
#X obj 69 163 phasor~ 440;
#X obj 113 225 r volume;
#X obj 113 247 / 100;
#X obj 113 269 pack 0 5;
#X obj 113 291 line~;
#X obj 113 291;
#X obj 76 322 *~;
#X obj 63 360 dac~;
#X obj 350 287 netreceive 3000;
#X obj 350 309 route 0 1;
#X obj 358 356 s volume;
#X connect 0 0 6 0;
#X connect 1 0 2 0;
#X connect 2 0 3 0;
#X connect 3 0 4 0;
#X connect 3 0 4 0;
#X connect 4 0 6 1;
#X connect 6 0 7 0;
#X connect 6 0 7 1;
#X connect 8 0 9 0;
#X connect 9 1 10 0;
